<?xml version="1.0" encoding="UTF-8" standalone="no"?>
<!DOCTYPE svg PUBLIC "-//W3C//DTD SVG 1.1//EN"
 "http://www.w3.org/Graphics/SVG/1.1/DTD/svg11.dtd">
<!-- Generated by graphviz version 2.38.0 (20140413.2041)
 -->
<!-- Title: G Pages: 1 -->
<svg width="540pt" height="732pt"
 viewBox="0.00 0.00 540.39 732.35" xmlns="http://www.w3.org/2000/svg" xmlns:xlink="http://www.w3.org/1999/xlink">
<g id="graph0" class="graph" transform="scale(1 1) rotate(0) translate(4 728.347)">
<title>G</title>
<polygon fill="white" stroke="none" points="-4,4 -4,-728.347 536.387,-728.347 536.387,4 -4,4"/>
<!-- n1 -->
<g id="node1" class="node"><title>n1</title>
<g id="a_node1"><a xlink:title="[tme6.lua]:82_">
<ellipse fill="none" stroke="black" cx="265.693" cy="-116.61" rx="84.2917" ry="26.7407"/>
<text text-anchor="middle" x="265.693" y="-120.41" font-family="Times,serif" font-size="14.00">Node1</text>
<text text-anchor="middle" x="265.693" y="-105.41" font-family="Times,serif" font-size="14.00">module = nn.Tanh</text>
</a>
</g>
</g>
<!-- n2 -->
<g id="node2" class="node"><title>n2</title>
<g id="a_node2"><a xlink:title="[[C]]:&#45;1_">
<ellipse fill="none" stroke="black" cx="265.693" cy="-26.8701" rx="52.1524" ry="26.7407"/>
<text text-anchor="middle" x="265.693" y="-30.6701" font-family="Times,serif" font-size="14.00">Node2</text>
<text text-anchor="middle" x="265.693" y="-15.6701" font-family="Times,serif" font-size="14.00">input = {}</text>
</a>
</g>
</g>
<!-- n1&#45;&gt;n2 -->
<g id="edge1" class="edge"><title>n1&#45;&gt;n2</title>
<path fill="none" stroke="black" d="M265.693,-89.2852C265.693,-81.3185 265.693,-72.4275 265.693,-63.9391"/>
<polygon fill="black" stroke="black" points="269.194,-63.874 265.693,-53.874 262.194,-63.8741 269.194,-63.874"/>
</g>
<!-- n3 -->
<g id="node3" class="node"><title>n3</title>
<g id="a_node3"><a xlink:title="[tme6.lua]:81_">
<ellipse fill="none" stroke="black" cx="265.693" cy="-216.957" rx="124.402" ry="37.4533"/>
<text text-anchor="middle" x="265.693" y="-228.257" font-family="Times,serif" font-size="14.00">Node3</text>
<text text-anchor="start" x="185.693" y="-213.257" font-family="Times,serif" font-size="14.00">module = nn.CAddTable</text>
<text text-anchor="middle" x="265.693" y="-198.257" font-family="Times,serif" font-size="14.00">mapindex = {Node4,Node5}</text>
</a>
</g>
</g>
<!-- n3&#45;&gt;n1 -->
<g id="edge2" class="edge"><title>n3&#45;&gt;n1</title>
<path fill="none" stroke="black" d="M265.693,-179.336C265.693,-170.965 265.693,-162.074 265.693,-153.725"/>
<polygon fill="black" stroke="black" points="269.194,-153.518 265.693,-143.518 262.194,-153.518 269.194,-153.518"/>
</g>
<!-- n4 -->
<g id="node4" class="node"><title>n4</title>
<g id="a_node4"><a xlink:title="[tme6.lua]:78_">
<ellipse fill="none" stroke="black" cx="128.693" cy="-317.304" rx="128.887" ry="26.7407"/>
<text text-anchor="middle" x="128.693" y="-321.104" font-family="Times,serif" font-size="14.00">Node4</text>
<text text-anchor="middle" x="128.693" y="-306.104" font-family="Times,serif" font-size="14.00">module = nn.Linear(51 &#45;&gt; 10)</text>
</a>
</g>
</g>
<!-- n4&#45;&gt;n3 -->
<g id="edge3" class="edge"><title>n4&#45;&gt;n3</title>
<path fill="none" stroke="black" d="M163.619,-291.232C177.863,-281.007 194.681,-268.934 210.512,-257.57"/>
<polygon fill="black" stroke="black" points="212.599,-260.38 218.681,-251.705 208.517,-254.693 212.599,-260.38"/>
</g>
<!-- n5 -->
<g id="node5" class="node"><title>n5</title>
<g id="a_node5"><a xlink:title="[tme6.lua]:79_">
<ellipse fill="none" stroke="black" cx="403.693" cy="-317.304" rx="128.887" ry="26.7407"/>
<text text-anchor="middle" x="403.693" y="-321.104" font-family="Times,serif" font-size="14.00">Node5</text>
<text text-anchor="middle" x="403.693" y="-306.104" font-family="Times,serif" font-size="14.00">module = nn.Linear(10 &#45;&gt; 10)</text>
</a>
</g>
</g>
<!-- n5&#45;&gt;n3 -->
<g id="edge4" class="edge"><title>n5&#45;&gt;n3</title>
<path fill="none" stroke="black" d="M368.513,-291.232C354.165,-281.007 337.224,-268.934 321.278,-257.57"/>
<polygon fill="black" stroke="black" points="323.224,-254.658 313.049,-251.705 319.161,-260.359 323.224,-254.658"/>
</g>
<!-- n6 -->
<g id="node6" class="node"><title>n6</title>
<g id="a_node6"><a xlink:title="[tme6.lua]:75_">
<ellipse fill="none" stroke="black" cx="145.693" cy="-407.044" rx="94.0904" ry="26.7407"/>
<text text-anchor="middle" x="145.693" y="-410.844" font-family="Times,serif" font-size="14.00">Node6</text>
<text text-anchor="middle" x="145.693" y="-395.844" font-family="Times,serif" font-size="14.00">module = nn.Identity</text>
</a>
</g>
</g>
<!-- n6&#45;&gt;n4 -->
<g id="edge5" class="edge"><title>n6&#45;&gt;n4</title>
<path fill="none" stroke="black" d="M140.685,-380.193C139.108,-372.055 137.337,-362.915 135.65,-354.208"/>
<polygon fill="black" stroke="black" points="139.063,-353.424 133.725,-344.272 132.191,-354.756 139.063,-353.424"/>
</g>
<!-- n7 -->
<g id="node7" class="node"><title>n7</title>
<g id="a_node7"><a xlink:title="[tme6.lua]:76_">
<ellipse fill="none" stroke="black" cx="385.693" cy="-407.044" rx="94.0904" ry="26.7407"/>
<text text-anchor="middle" x="385.693" y="-410.844" font-family="Times,serif" font-size="14.00">Node7</text>
<text text-anchor="middle" x="385.693" y="-395.844" font-family="Times,serif" font-size="14.00">module = nn.Identity</text>
</a>
</g>
</g>
<!-- n7&#45;&gt;n5 -->
<g id="edge6" class="edge"><title>n7&#45;&gt;n5</title>
<path fill="none" stroke="black" d="M390.997,-380.193C392.666,-372.055 394.541,-362.915 396.328,-354.208"/>
<polygon fill="black" stroke="black" points="399.785,-354.772 398.366,-344.272 392.928,-353.365 399.785,-354.772"/>
</g>
<!-- n8 -->
<g id="node8" class="node"><title>n8</title>
<g id="a_node8"><a xlink:title="[[C]]:&#45;1_&#45;2">
<ellipse fill="none" stroke="black" cx="157.693" cy="-507.39" rx="70.922" ry="37.4533"/>
<text text-anchor="middle" x="157.693" y="-518.69" font-family="Times,serif" font-size="14.00">Node8</text>
<text text-anchor="start" x="115.693" y="-503.69" font-family="Times,serif" font-size="14.00">input = {}</text>
<text text-anchor="middle" x="157.693" y="-488.69" font-family="Times,serif" font-size="14.00">selectindex = 2</text>
</a>
</g>
</g>
<!-- n8&#45;&gt;n6 -->
<g id="edge7" class="edge"><title>n8&#45;&gt;n6</title>
<path fill="none" stroke="black" d="M153.225,-469.77C152.192,-461.306 151.095,-452.31 150.066,-443.88"/>
<polygon fill="black" stroke="black" points="153.54,-443.454 148.855,-433.951 146.592,-444.302 153.54,-443.454"/>
</g>
<!-- n9 -->
<g id="node9" class="node"><title>n9</title>
<g id="a_node9"><a xlink:title="[[C]]:&#45;1_&#45;1">
<ellipse fill="none" stroke="black" cx="339.693" cy="-507.39" rx="70.922" ry="37.4533"/>
<text text-anchor="middle" x="339.693" y="-518.69" font-family="Times,serif" font-size="14.00">Node9</text>
<text text-anchor="start" x="297.693" y="-503.69" font-family="Times,serif" font-size="14.00">input = {}</text>
<text text-anchor="middle" x="339.693" y="-488.69" font-family="Times,serif" font-size="14.00">selectindex = 1</text>
</a>
</g>
</g>
<!-- n9&#45;&gt;n7 -->
<g id="edge8" class="edge"><title>n9&#45;&gt;n7</title>
<path fill="none" stroke="black" d="M356.3,-470.885C360.541,-461.82 365.096,-452.081 369.324,-443.041"/>
<polygon fill="black" stroke="black" points="372.518,-444.472 373.585,-433.931 366.178,-441.507 372.518,-444.472"/>
</g>
<!-- n10 -->
<g id="node10" class="node"><title>n10</title>
<g id="a_node10"><a xlink:title="[[C]]:&#45;1_ split at [/usr/local/share/lua/5.1/nngraph/gmodule.lua]:72&#45;mnode">
<ellipse fill="none" stroke="black" cx="236.693" cy="-607.737" rx="80.7205" ry="26.7407"/>
<text text-anchor="middle" x="236.693" y="-611.537" font-family="Times,serif" font-size="14.00">Node10</text>
<text text-anchor="middle" x="236.693" y="-596.537" font-family="Times,serif" font-size="14.00">nSplitOutputs = 2</text>
</a>
</g>
</g>
<!-- n10&#45;&gt;n8 -->
<g id="edge9" class="edge"><title>n10&#45;&gt;n8</title>
<path fill="none" stroke="black" d="M216.554,-581.666C208.904,-572.142 199.967,-561.016 191.401,-550.353"/>
<polygon fill="black" stroke="black" points="193.942,-547.927 184.951,-542.323 188.485,-552.311 193.942,-547.927"/>
</g>
<!-- n10&#45;&gt;n9 -->
<g id="edge10" class="edge"><title>n10&#45;&gt;n9</title>
<path fill="none" stroke="black" d="M262.419,-582.174C273.373,-571.714 286.424,-559.253 298.653,-547.576"/>
<polygon fill="black" stroke="black" points="301.32,-549.87 306.135,-540.432 296.486,-544.807 301.32,-549.87"/>
</g>
<!-- n11 -->
<g id="node11" class="node"><title>n11</title>
<g id="a_node11"><a xlink:title="[[C]]:&#45;1_">
<ellipse fill="none" stroke="black" cx="236.693" cy="-697.477" rx="52.1524" ry="26.7407"/>
<text text-anchor="middle" x="236.693" y="-701.277" font-family="Times,serif" font-size="14.00">Node11</text>
<text text-anchor="middle" x="236.693" y="-686.277" font-family="Times,serif" font-size="14.00">input = {}</text>
</a>
</g>
</g>
<!-- n11&#45;&gt;n10 -->
<g id="edge11" class="edge"><title>n11&#45;&gt;n10</title>
<path fill="none" stroke="black" d="M236.693,-670.152C236.693,-662.186 236.693,-653.295 236.693,-644.806"/>
<polygon fill="black" stroke="black" points="240.194,-644.741 236.693,-634.741 233.194,-644.741 240.194,-644.741"/>
</g>
</g>
</svg>
