<?xml version="1.0" encoding="UTF-8" standalone="no"?>
<!DOCTYPE svg PUBLIC "-//W3C//DTD SVG 1.1//EN"
 "http://www.w3.org/Graphics/SVG/1.1/DTD/svg11.dtd">
<!-- Generated by graphviz version 2.38.0 (20140413.2041)
 -->
<!-- Title: G Pages: 1 -->
<svg width="265pt" height="421pt"
 viewBox="0.00 0.00 265.39 420.70" xmlns="http://www.w3.org/2000/svg" xmlns:xlink="http://www.w3.org/1999/xlink">
<g id="graph0" class="graph" transform="scale(1 1) rotate(0) translate(4 416.701)">
<title>G</title>
<polygon fill="white" stroke="none" points="-4,4 -4,-416.701 261.387,-416.701 261.387,4 -4,4"/>
<!-- n1 -->
<g id="node1" class="node"><title>n1</title>
<g id="a_node1"><a xlink:title="[tme6.lua]:65_">
<ellipse fill="none" stroke="black" cx="128.693" cy="-116.61" rx="113.689" ry="26.7407"/>
<text text-anchor="middle" x="128.693" y="-120.41" font-family="Times,serif" font-size="14.00">Node1</text>
<text text-anchor="middle" x="128.693" y="-105.41" font-family="Times,serif" font-size="14.00">module = nn.LogSoftMax</text>
</a>
</g>
</g>
<!-- n2 -->
<g id="node2" class="node"><title>n2</title>
<g id="a_node2"><a xlink:title="[[C]]:&#45;1_">
<ellipse fill="none" stroke="black" cx="128.693" cy="-26.8701" rx="52.1524" ry="26.7407"/>
<text text-anchor="middle" x="128.693" y="-30.6701" font-family="Times,serif" font-size="14.00">Node2</text>
<text text-anchor="middle" x="128.693" y="-15.6701" font-family="Times,serif" font-size="14.00">input = {}</text>
</a>
</g>
</g>
<!-- n1&#45;&gt;n2 -->
<g id="edge1" class="edge"><title>n1&#45;&gt;n2</title>
<path fill="none" stroke="black" d="M128.693,-89.2852C128.693,-81.3185 128.693,-72.4275 128.693,-63.9391"/>
<polygon fill="black" stroke="black" points="132.194,-63.874 128.693,-53.874 125.194,-63.8741 132.194,-63.874"/>
</g>
<!-- n3 -->
<g id="node3" class="node"><title>n3</title>
<g id="a_node3"><a xlink:title="[tme6.lua]:64_">
<ellipse fill="none" stroke="black" cx="128.693" cy="-206.35" rx="128.887" ry="26.7407"/>
<text text-anchor="middle" x="128.693" y="-210.15" font-family="Times,serif" font-size="14.00">Node3</text>
<text text-anchor="middle" x="128.693" y="-195.15" font-family="Times,serif" font-size="14.00">module = nn.Linear(10 &#45;&gt; 51)</text>
</a>
</g>
</g>
<!-- n3&#45;&gt;n1 -->
<g id="edge2" class="edge"><title>n3&#45;&gt;n1</title>
<path fill="none" stroke="black" d="M128.693,-179.025C128.693,-171.059 128.693,-162.168 128.693,-153.679"/>
<polygon fill="black" stroke="black" points="132.194,-153.614 128.693,-143.614 125.194,-153.614 132.194,-153.614"/>
</g>
<!-- n4 -->
<g id="node4" class="node"><title>n4</title>
<g id="a_node4"><a xlink:title="[tme6.lua]:63_">
<ellipse fill="none" stroke="black" cx="128.693" cy="-296.09" rx="94.0904" ry="26.7407"/>
<text text-anchor="middle" x="128.693" y="-299.89" font-family="Times,serif" font-size="14.00">Node4</text>
<text text-anchor="middle" x="128.693" y="-284.89" font-family="Times,serif" font-size="14.00">module = nn.Identity</text>
</a>
</g>
</g>
<!-- n4&#45;&gt;n3 -->
<g id="edge3" class="edge"><title>n4&#45;&gt;n3</title>
<path fill="none" stroke="black" d="M128.693,-268.765C128.693,-260.799 128.693,-251.908 128.693,-243.419"/>
<polygon fill="black" stroke="black" points="132.194,-243.354 128.693,-233.354 125.194,-243.354 132.194,-243.354"/>
</g>
<!-- n5 -->
<g id="node5" class="node"><title>n5</title>
<g id="a_node5"><a xlink:title="[[C]]:&#45;1_">
<ellipse fill="none" stroke="black" cx="128.693" cy="-385.831" rx="52.1524" ry="26.7407"/>
<text text-anchor="middle" x="128.693" y="-389.631" font-family="Times,serif" font-size="14.00">Node5</text>
<text text-anchor="middle" x="128.693" y="-374.631" font-family="Times,serif" font-size="14.00">input = {}</text>
</a>
</g>
</g>
<!-- n5&#45;&gt;n4 -->
<g id="edge4" class="edge"><title>n5&#45;&gt;n4</title>
<path fill="none" stroke="black" d="M128.693,-358.506C128.693,-350.539 128.693,-341.648 128.693,-333.159"/>
<polygon fill="black" stroke="black" points="132.194,-333.094 128.693,-323.094 125.194,-333.094 132.194,-333.094"/>
</g>
</g>
</svg>
