<?xml version="1.0" encoding="UTF-8" standalone="no"?>
<!DOCTYPE svg PUBLIC "-//W3C//DTD SVG 1.1//EN"
 "http://www.w3.org/Graphics/SVG/1.1/DTD/svg11.dtd">
<!-- Generated by graphviz version 2.38.0 (20140413.2041)
 -->
<!-- Title: G Pages: 1 -->
<svg width="970pt" height="1488pt"
 viewBox="0.00 0.00 970.09 1487.81" xmlns="http://www.w3.org/2000/svg" xmlns:xlink="http://www.w3.org/1999/xlink">
<g id="graph0" class="graph" transform="scale(1 1) rotate(0) translate(4 1483.81)">
<title>G</title>
<polygon fill="white" stroke="none" points="-4,4 -4,-1483.81 966.09,-1483.81 966.09,4 -4,4"/>
<!-- n1 -->
<g id="node1" class="node"><title>n1</title>
<g id="a_node1"><a xlink:title="[tme6.lua]:70_">
<ellipse fill="none" stroke="black" cx="226.045" cy="-940.597" rx="98.9899" ry="26.7407"/>
<text text-anchor="middle" x="226.045" y="-944.397" font-family="Times,serif" font-size="14.00">Node1</text>
<text text-anchor="middle" x="226.045" y="-929.397" font-family="Times,serif" font-size="14.00">module = nn.gModule</text>
</a>
</g>
</g>
<!-- n2 -->
<g id="node2" class="node"><title>n2</title>
<g id="a_node2"><a xlink:title="[[C]]:&#45;1_">
<ellipse fill="none" stroke="black" cx="502.045" cy="-37.4767" rx="208.693" ry="37.4533"/>
<text text-anchor="middle" x="502.045" y="-48.7767" font-family="Times,serif" font-size="14.00">Node2</text>
<text text-anchor="start" x="362.545" y="-33.7767" font-family="Times,serif" font-size="14.00">input = {}</text>
<text text-anchor="middle" x="502.045" y="-18.7767" font-family="Times,serif" font-size="14.00">mapindex = {Node1,Node3,Node4,Node5,Node6}</text>
</a>
</g>
</g>
<!-- n1&#45;&gt;n2 -->
<g id="edge1" class="edge"><title>n1&#45;&gt;n2</title>
<path fill="none" stroke="black" d="M226.045,-913.56C226.045,-875.596 226.045,-802.823 226.045,-740.904 226.045,-740.904 226.045,-740.904 226.045,-237.17 226.045,-154.646 308.32,-103.005 383.029,-73.1248"/>
<polygon fill="black" stroke="black" points="384.519,-76.3007 392.566,-69.4095 381.978,-69.7781 384.519,-76.3007"/>
</g>
<!-- n8 -->
<g id="node8" class="node"><title>n8</title>
<g id="a_node8"><a xlink:title="[tme6.lua]:68_">
<ellipse fill="none" stroke="black" cx="383.045" cy="-840.25" rx="128.887" ry="37.4533"/>
<text text-anchor="middle" x="383.045" y="-851.55" font-family="Times,serif" font-size="14.00">Node8</text>
<text text-anchor="start" x="300.045" y="-836.55" font-family="Times,serif" font-size="14.00">module = nn.gModule</text>
<text text-anchor="middle" x="383.045" y="-821.55" font-family="Times,serif" font-size="14.00">mapindex = {Node1,Node14}</text>
</a>
</g>
</g>
<!-- n1&#45;&gt;n8 -->
<g id="edge13" class="edge"><title>n1&#45;&gt;n8</title>
<path fill="none" stroke="black" d="M264.452,-915.539C281.535,-904.838 302.081,-891.968 321.236,-879.968"/>
<polygon fill="black" stroke="black" points="323.306,-882.802 329.922,-874.527 319.589,-876.87 323.306,-882.802"/>
</g>
<!-- n3 -->
<g id="node3" class="node"><title>n3</title>
<g id="a_node3"><a xlink:title="[tme6.lua]:70_">
<ellipse fill="none" stroke="black" cx="432.045" cy="-739.904" rx="98.9899" ry="26.7407"/>
<text text-anchor="middle" x="432.045" y="-743.704" font-family="Times,serif" font-size="14.00">Node3</text>
<text text-anchor="middle" x="432.045" y="-728.704" font-family="Times,serif" font-size="14.00">module = nn.gModule</text>
</a>
</g>
</g>
<!-- n3&#45;&gt;n2 -->
<g id="edge2" class="edge"><title>n3&#45;&gt;n2</title>
<path fill="none" stroke="black" d="M432.045,-712.867C432.045,-674.903 432.045,-602.129 432.045,-540.21 432.045,-540.21 432.045,-540.21 432.045,-237.17 432.045,-182.149 456.219,-123.178 476.155,-83.901"/>
<polygon fill="black" stroke="black" points="479.354,-85.3347 480.853,-74.8465 473.14,-82.1106 479.354,-85.3347"/>
</g>
<!-- n9 -->
<g id="node9" class="node"><title>n9</title>
<g id="a_node9"><a xlink:title="[tme6.lua]:68_">
<ellipse fill="none" stroke="black" cx="589.045" cy="-639.557" rx="128.887" ry="37.4533"/>
<text text-anchor="middle" x="589.045" y="-650.857" font-family="Times,serif" font-size="14.00">Node9</text>
<text text-anchor="start" x="506.045" y="-635.857" font-family="Times,serif" font-size="14.00">module = nn.gModule</text>
<text text-anchor="middle" x="589.045" y="-620.857" font-family="Times,serif" font-size="14.00">mapindex = {Node3,Node15}</text>
</a>
</g>
</g>
<!-- n3&#45;&gt;n9 -->
<g id="edge15" class="edge"><title>n3&#45;&gt;n9</title>
<path fill="none" stroke="black" d="M470.452,-714.845C487.535,-704.144 508.081,-691.274 527.236,-679.275"/>
<polygon fill="black" stroke="black" points="529.306,-682.109 535.922,-673.834 525.589,-676.176 529.306,-682.109"/>
</g>
<!-- n4 -->
<g id="node4" class="node"><title>n4</title>
<g id="a_node4"><a xlink:title="[tme6.lua]:70_">
<ellipse fill="none" stroke="black" cx="589.045" cy="-539.21" rx="98.9899" ry="26.7407"/>
<text text-anchor="middle" x="589.045" y="-543.01" font-family="Times,serif" font-size="14.00">Node4</text>
<text text-anchor="middle" x="589.045" y="-528.01" font-family="Times,serif" font-size="14.00">module = nn.gModule</text>
</a>
</g>
</g>
<!-- n4&#45;&gt;n2 -->
<g id="edge3" class="edge"><title>n4&#45;&gt;n2</title>
<path fill="none" stroke="black" d="M565.323,-513.012C556.34,-502.362 546.69,-489.409 540.045,-476.34 511.442,-420.082 502.045,-402.629 502.045,-339.517 502.045,-339.517 502.045,-339.517 502.045,-237.17 502.045,-185.128 502.045,-125.418 502.045,-85.1528"/>
<polygon fill="black" stroke="black" points="505.545,-85.0975 502.045,-75.0975 498.545,-85.0976 505.545,-85.0975"/>
</g>
<!-- n10 -->
<g id="node10" class="node"><title>n10</title>
<g id="a_node10"><a xlink:title="[tme6.lua]:68_">
<ellipse fill="none" stroke="black" cx="678.045" cy="-438.864" rx="128.887" ry="37.4533"/>
<text text-anchor="middle" x="678.045" y="-450.164" font-family="Times,serif" font-size="14.00">Node10</text>
<text text-anchor="start" x="595.045" y="-435.164" font-family="Times,serif" font-size="14.00">module = nn.gModule</text>
<text text-anchor="middle" x="678.045" y="-420.164" font-family="Times,serif" font-size="14.00">mapindex = {Node4,Node16}</text>
</a>
</g>
</g>
<!-- n4&#45;&gt;n10 -->
<g id="edge17" class="edge"><title>n4&#45;&gt;n10</title>
<path fill="none" stroke="black" d="M611.965,-512.884C620.173,-503.813 629.674,-493.314 638.868,-483.155"/>
<polygon fill="black" stroke="black" points="641.697,-485.245 645.812,-475.482 636.507,-480.548 641.697,-485.245"/>
</g>
<!-- n5 -->
<g id="node5" class="node"><title>n5</title>
<g id="a_node5"><a xlink:title="[tme6.lua]:70_">
<ellipse fill="none" stroke="black" cx="678.045" cy="-338.517" rx="98.9899" ry="26.7407"/>
<text text-anchor="middle" x="678.045" y="-342.317" font-family="Times,serif" font-size="14.00">Node5</text>
<text text-anchor="middle" x="678.045" y="-327.317" font-family="Times,serif" font-size="14.00">module = nn.gModule</text>
</a>
</g>
</g>
<!-- n5&#45;&gt;n2 -->
<g id="edge4" class="edge"><title>n5&#45;&gt;n2</title>
<path fill="none" stroke="black" d="M616.239,-317.457C595.324,-307.846 573.603,-294.265 559.045,-275.647 547.315,-260.645 523.928,-149.632 511.056,-84.9377"/>
<polygon fill="black" stroke="black" points="514.459,-84.1043 509.084,-74.9742 507.592,-85.4635 514.459,-84.1043"/>
</g>
<!-- n11 -->
<g id="node11" class="node"><title>n11</title>
<g id="a_node11"><a xlink:title="[tme6.lua]:68_">
<ellipse fill="none" stroke="black" cx="697.045" cy="-238.17" rx="128.887" ry="37.4533"/>
<text text-anchor="middle" x="697.045" y="-249.47" font-family="Times,serif" font-size="14.00">Node11</text>
<text text-anchor="start" x="614.045" y="-234.47" font-family="Times,serif" font-size="14.00">module = nn.gModule</text>
<text text-anchor="middle" x="697.045" y="-219.47" font-family="Times,serif" font-size="14.00">mapindex = {Node5,Node17}</text>
</a>
</g>
</g>
<!-- n5&#45;&gt;n11 -->
<g id="edge19" class="edge"><title>n5&#45;&gt;n11</title>
<path fill="none" stroke="black" d="M683.037,-311.677C684.571,-303.738 686.309,-294.743 688.026,-285.856"/>
<polygon fill="black" stroke="black" points="691.483,-286.413 689.943,-275.931 684.61,-285.085 691.483,-286.413"/>
</g>
<!-- n6 -->
<g id="node6" class="node"><title>n6</title>
<g id="a_node6"><a xlink:title="[tme6.lua]:70_">
<ellipse fill="none" stroke="black" cx="682.045" cy="-137.823" rx="98.9899" ry="26.7407"/>
<text text-anchor="middle" x="682.045" y="-141.623" font-family="Times,serif" font-size="14.00">Node6</text>
<text text-anchor="middle" x="682.045" y="-126.623" font-family="Times,serif" font-size="14.00">module = nn.gModule</text>
</a>
</g>
</g>
<!-- n6&#45;&gt;n2 -->
<g id="edge5" class="edge"><title>n6&#45;&gt;n2</title>
<path fill="none" stroke="black" d="M639.388,-113.517C620.108,-102.983 596.776,-90.235 574.858,-78.2592"/>
<polygon fill="black" stroke="black" points="576.346,-75.0842 565.892,-73.3609 572.99,-81.2271 576.346,-75.0842"/>
</g>
<!-- n7 -->
<g id="node7" class="node"><title>n7</title>
<g id="a_node7"><a xlink:title="[tme6.lua]:66_">
<ellipse fill="none" stroke="black" cx="226.045" cy="-1040.94" rx="133.787" ry="37.4533"/>
<text text-anchor="middle" x="226.045" y="-1052.24" font-family="Times,serif" font-size="14.00">Node7</text>
<text text-anchor="start" x="139.545" y="-1037.24" font-family="Times,serif" font-size="14.00">module = nn.gModule</text>
<text text-anchor="middle" x="226.045" y="-1022.24" font-family="Times,serif" font-size="14.00">mapindex = {Node12,Node13}</text>
</a>
</g>
</g>
<!-- n7&#45;&gt;n1 -->
<g id="edge6" class="edge"><title>n7&#45;&gt;n1</title>
<path fill="none" stroke="black" d="M226.045,-1003.32C226.045,-994.952 226.045,-986.061 226.045,-977.711"/>
<polygon fill="black" stroke="black" points="229.545,-977.505 226.045,-967.505 222.545,-977.505 229.545,-977.505"/>
</g>
<!-- n8&#45;&gt;n3 -->
<g id="edge7" class="edge"><title>n8&#45;&gt;n3</title>
<path fill="none" stroke="black" d="M401.152,-802.909C405.556,-794.069 410.257,-784.634 414.629,-775.859"/>
<polygon fill="black" stroke="black" points="417.887,-777.168 419.214,-766.657 411.622,-774.047 417.887,-777.168"/>
</g>
<!-- n9&#45;&gt;n4 -->
<g id="edge8" class="edge"><title>n9&#45;&gt;n4</title>
<path fill="none" stroke="black" d="M589.045,-601.936C589.045,-593.565 589.045,-584.674 589.045,-576.325"/>
<polygon fill="black" stroke="black" points="592.545,-576.118 589.045,-566.118 585.545,-576.118 592.545,-576.118"/>
</g>
<!-- n10&#45;&gt;n5 -->
<g id="edge9" class="edge"><title>n10&#45;&gt;n5</title>
<path fill="none" stroke="black" d="M678.045,-401.243C678.045,-392.872 678.045,-383.981 678.045,-375.631"/>
<polygon fill="black" stroke="black" points="681.545,-375.425 678.045,-365.425 674.545,-375.425 681.545,-375.425"/>
</g>
<!-- n11&#45;&gt;n6 -->
<g id="edge10" class="edge"><title>n11&#45;&gt;n6</title>
<path fill="none" stroke="black" d="M691.46,-200.549C690.169,-192.085 688.797,-183.09 687.511,-174.66"/>
<polygon fill="black" stroke="black" points="690.965,-174.089 685.997,-164.731 684.045,-175.145 690.965,-174.089"/>
</g>
<!-- n12 -->
<g id="node12" class="node"><title>n12</title>
<g id="a_node12"><a xlink:title="[tme6.lua]:58_">
<ellipse fill="none" stroke="black" cx="94.0452" cy="-1151.9" rx="94.0904" ry="26.7407"/>
<text text-anchor="middle" x="94.0452" y="-1155.7" font-family="Times,serif" font-size="14.00">Node12</text>
<text text-anchor="middle" x="94.0452" y="-1140.7" font-family="Times,serif" font-size="14.00">module = nn.Identity</text>
</a>
</g>
</g>
<!-- n12&#45;&gt;n7 -->
<g id="edge11" class="edge"><title>n12&#45;&gt;n7</title>
<path fill="none" stroke="black" d="M123.998,-1126.17C139.367,-1113.49 158.499,-1097.7 176.029,-1083.23"/>
<polygon fill="black" stroke="black" points="178.468,-1085.75 183.952,-1076.69 174.012,-1080.35 178.468,-1085.75"/>
</g>
<!-- n13 -->
<g id="node13" class="node"><title>n13</title>
<g id="a_node13"><a xlink:title="[tme6.lua]:63_">
<ellipse fill="none" stroke="black" cx="300.045" cy="-1151.9" rx="94.0904" ry="26.7407"/>
<text text-anchor="middle" x="300.045" y="-1155.7" font-family="Times,serif" font-size="14.00">Node13</text>
<text text-anchor="middle" x="300.045" y="-1140.7" font-family="Times,serif" font-size="14.00">module = nn.Identity</text>
</a>
</g>
</g>
<!-- n13&#45;&gt;n7 -->
<g id="edge12" class="edge"><title>n13&#45;&gt;n7</title>
<path fill="none" stroke="black" d="M282.695,-1125.35C274.846,-1113.8 265.334,-1099.79 256.364,-1086.58"/>
<polygon fill="black" stroke="black" points="259.084,-1084.36 250.571,-1078.05 253.294,-1088.29 259.084,-1084.36"/>
</g>
<!-- n14 -->
<g id="node14" class="node"><title>n14</title>
<g id="a_node14"><a xlink:title="[tme6.lua]:63_">
<ellipse fill="none" stroke="black" cx="438.045" cy="-940.597" rx="94.0904" ry="26.7407"/>
<text text-anchor="middle" x="438.045" y="-944.397" font-family="Times,serif" font-size="14.00">Node14</text>
<text text-anchor="middle" x="438.045" y="-929.397" font-family="Times,serif" font-size="14.00">module = nn.Identity</text>
</a>
</g>
</g>
<!-- n14&#45;&gt;n8 -->
<g id="edge14" class="edge"><title>n14&#45;&gt;n8</title>
<path fill="none" stroke="black" d="M423.738,-914.014C419.011,-905.561 413.601,-895.889 408.304,-886.416"/>
<polygon fill="black" stroke="black" points="411.221,-884.461 403.285,-877.441 405.111,-887.877 411.221,-884.461"/>
</g>
<!-- n15 -->
<g id="node15" class="node"><title>n15</title>
<g id="a_node15"><a xlink:title="[tme6.lua]:63_">
<ellipse fill="none" stroke="black" cx="624.045" cy="-840.25" rx="94.0904" ry="26.7407"/>
<text text-anchor="middle" x="624.045" y="-844.05" font-family="Times,serif" font-size="14.00">Node15</text>
<text text-anchor="middle" x="624.045" y="-829.05" font-family="Times,serif" font-size="14.00">module = nn.Identity</text>
</a>
</g>
</g>
<!-- n15&#45;&gt;n9 -->
<g id="edge16" class="edge"><title>n15&#45;&gt;n9</title>
<path fill="none" stroke="black" d="M619.47,-813.275C613.827,-781.244 604.136,-726.224 597.206,-686.887"/>
<polygon fill="black" stroke="black" points="600.646,-686.238 595.464,-676.997 593.752,-687.452 600.646,-686.238"/>
</g>
<!-- n16 -->
<g id="node16" class="node"><title>n16</title>
<g id="a_node16"><a xlink:title="[tme6.lua]:63_">
<ellipse fill="none" stroke="black" cx="746.045" cy="-739.904" rx="94.0904" ry="26.7407"/>
<text text-anchor="middle" x="746.045" y="-743.704" font-family="Times,serif" font-size="14.00">Node16</text>
<text text-anchor="middle" x="746.045" y="-728.704" font-family="Times,serif" font-size="14.00">module = nn.Identity</text>
</a>
</g>
</g>
<!-- n16&#45;&gt;n10 -->
<g id="edge18" class="edge"><title>n16&#45;&gt;n10</title>
<path fill="none" stroke="black" d="M743.657,-712.97C740.826,-685.294 735.411,-640.265 727.045,-602.08 718.316,-562.233 704.668,-517.963 693.99,-485.75"/>
<polygon fill="black" stroke="black" points="697.273,-484.531 690.781,-476.159 690.635,-486.753 697.273,-484.531"/>
</g>
<!-- n17 -->
<g id="node17" class="node"><title>n17</title>
<g id="a_node17"><a xlink:title="[tme6.lua]:63_">
<ellipse fill="none" stroke="black" cx="868.045" cy="-1040.94" rx="94.0904" ry="26.7407"/>
<text text-anchor="middle" x="868.045" y="-1044.74" font-family="Times,serif" font-size="14.00">Node17</text>
<text text-anchor="middle" x="868.045" y="-1029.74" font-family="Times,serif" font-size="14.00">module = nn.Identity</text>
</a>
</g>
</g>
<!-- n17&#45;&gt;n11 -->
<g id="edge20" class="edge"><title>n17&#45;&gt;n11</title>
<path fill="none" stroke="black" d="M868.045,-1013.91C868.045,-975.943 868.045,-903.17 868.045,-841.25 868.045,-841.25 868.045,-841.25 868.045,-437.864 868.045,-369.673 809.468,-313.24 760.883,-278.161"/>
<polygon fill="black" stroke="black" points="762.752,-275.197 752.564,-272.29 758.715,-280.916 762.752,-275.197"/>
</g>
<!-- n18 -->
<g id="node18" class="node"><title>n18</title>
<g id="a_node18"><a xlink:title="[[C]]:&#45;1_&#45;1">
<ellipse fill="none" stroke="black" cx="100.045" cy="-1262.85" rx="70.922" ry="37.4533"/>
<text text-anchor="middle" x="100.045" y="-1274.15" font-family="Times,serif" font-size="14.00">Node18</text>
<text text-anchor="start" x="58.0452" y="-1259.15" font-family="Times,serif" font-size="14.00">input = {}</text>
<text text-anchor="middle" x="100.045" y="-1244.15" font-family="Times,serif" font-size="14.00">selectindex = 1</text>
</a>
</g>
</g>
<!-- n18&#45;&gt;n12 -->
<g id="edge21" class="edge"><title>n18&#45;&gt;n12</title>
<path fill="none" stroke="black" d="M98.0306,-1225.27C97.3894,-1213.62 96.6806,-1200.75 96.0408,-1189.13"/>
<polygon fill="black" stroke="black" points="99.5211,-1188.68 95.4765,-1178.89 92.5317,-1189.06 99.5211,-1188.68"/>
</g>
<!-- n19 -->
<g id="node19" class="node"><title>n19</title>
<g id="a_node19"><a xlink:title="[[C]]:&#45;1_&#45;2">
<ellipse fill="none" stroke="black" cx="283.045" cy="-1262.85" rx="70.922" ry="37.4533"/>
<text text-anchor="middle" x="283.045" y="-1274.15" font-family="Times,serif" font-size="14.00">Node19</text>
<text text-anchor="start" x="241.045" y="-1259.15" font-family="Times,serif" font-size="14.00">input = {}</text>
<text text-anchor="middle" x="283.045" y="-1244.15" font-family="Times,serif" font-size="14.00">selectindex = 2</text>
</a>
</g>
</g>
<!-- n19&#45;&gt;n13 -->
<g id="edge22" class="edge"><title>n19&#45;&gt;n13</title>
<path fill="none" stroke="black" d="M288.753,-1225.27C290.589,-1213.51 292.619,-1200.49 294.446,-1188.78"/>
<polygon fill="black" stroke="black" points="297.906,-1189.31 295.99,-1178.89 290.99,-1188.23 297.906,-1189.31"/>
</g>
<!-- n20 -->
<g id="node20" class="node"><title>n20</title>
<g id="a_node20"><a xlink:title="[[C]]:&#45;1_&#45;3">
<ellipse fill="none" stroke="black" cx="442.045" cy="-1262.85" rx="70.922" ry="37.4533"/>
<text text-anchor="middle" x="442.045" y="-1274.15" font-family="Times,serif" font-size="14.00">Node20</text>
<text text-anchor="start" x="400.045" y="-1259.15" font-family="Times,serif" font-size="14.00">input = {}</text>
<text text-anchor="middle" x="442.045" y="-1244.15" font-family="Times,serif" font-size="14.00">selectindex = 3</text>
</a>
</g>
</g>
<!-- n20&#45;&gt;n14 -->
<g id="edge23" class="edge"><title>n20&#45;&gt;n14</title>
<path fill="none" stroke="black" d="M441.586,-1225.11C440.814,-1163.3 439.265,-1039.24 438.497,-977.791"/>
<polygon fill="black" stroke="black" points="441.997,-977.735 438.372,-967.779 434.997,-977.822 441.997,-977.735"/>
</g>
<!-- n21 -->
<g id="node21" class="node"><title>n21</title>
<g id="a_node21"><a xlink:title="[[C]]:&#45;1_&#45;4">
<ellipse fill="none" stroke="black" cx="601.045" cy="-1262.85" rx="70.922" ry="37.4533"/>
<text text-anchor="middle" x="601.045" y="-1274.15" font-family="Times,serif" font-size="14.00">Node21</text>
<text text-anchor="start" x="559.045" y="-1259.15" font-family="Times,serif" font-size="14.00">input = {}</text>
<text text-anchor="middle" x="601.045" y="-1244.15" font-family="Times,serif" font-size="14.00">selectindex = 4</text>
</a>
</g>
</g>
<!-- n21&#45;&gt;n15 -->
<g id="edge24" class="edge"><title>n21&#45;&gt;n15</title>
<path fill="none" stroke="black" d="M603.046,-1225.26C607.404,-1145.57 617.711,-957.091 622.057,-877.608"/>
<polygon fill="black" stroke="black" points="625.578,-877.315 622.63,-867.139 618.589,-876.933 625.578,-877.315"/>
</g>
<!-- n22 -->
<g id="node22" class="node"><title>n22</title>
<g id="a_node22"><a xlink:title="[[C]]:&#45;1_&#45;5">
<ellipse fill="none" stroke="black" cx="760.045" cy="-1262.85" rx="70.922" ry="37.4533"/>
<text text-anchor="middle" x="760.045" y="-1274.15" font-family="Times,serif" font-size="14.00">Node22</text>
<text text-anchor="start" x="718.045" y="-1259.15" font-family="Times,serif" font-size="14.00">input = {}</text>
<text text-anchor="middle" x="760.045" y="-1244.15" font-family="Times,serif" font-size="14.00">selectindex = 5</text>
</a>
</g>
</g>
<!-- n22&#45;&gt;n16 -->
<g id="edge25" class="edge"><title>n22&#45;&gt;n16</title>
<path fill="none" stroke="black" d="M756.293,-1225.32C752.146,-1181.72 746.045,-1106.6 746.045,-1041.94 746.045,-1041.94 746.045,-1041.94 746.045,-939.597 746.045,-882.757 746.045,-816.771 746.045,-776.961"/>
<polygon fill="black" stroke="black" points="749.545,-776.941 746.045,-766.941 742.545,-776.941 749.545,-776.941"/>
</g>
<!-- n23 -->
<g id="node23" class="node"><title>n23</title>
<g id="a_node23"><a xlink:title="[[C]]:&#45;1_&#45;6">
<ellipse fill="none" stroke="black" cx="868.045" cy="-1151.9" rx="70.922" ry="37.4533"/>
<text text-anchor="middle" x="868.045" y="-1163.2" font-family="Times,serif" font-size="14.00">Node23</text>
<text text-anchor="start" x="826.045" y="-1148.2" font-family="Times,serif" font-size="14.00">input = {}</text>
<text text-anchor="middle" x="868.045" y="-1133.2" font-family="Times,serif" font-size="14.00">selectindex = 6</text>
</a>
</g>
</g>
<!-- n23&#45;&gt;n17 -->
<g id="edge26" class="edge"><title>n23&#45;&gt;n17</title>
<path fill="none" stroke="black" d="M868.045,-1114.31C868.045,-1102.67 868.045,-1089.8 868.045,-1078.18"/>
<polygon fill="black" stroke="black" points="871.545,-1077.93 868.045,-1067.93 864.545,-1077.93 871.545,-1077.93"/>
</g>
<!-- n24 -->
<g id="node24" class="node"><title>n24</title>
<g id="a_node24"><a xlink:title="[[C]]:&#45;1_ split at [/usr/local/share/lua/5.1/nngraph/gmodule.lua]:72&#45;mnode">
<ellipse fill="none" stroke="black" cx="521.045" cy="-1363.2" rx="80.7205" ry="26.7407"/>
<text text-anchor="middle" x="521.045" y="-1367" font-family="Times,serif" font-size="14.00">Node24</text>
<text text-anchor="middle" x="521.045" y="-1352" font-family="Times,serif" font-size="14.00">nSplitOutputs = 6</text>
</a>
</g>
</g>
<!-- n24&#45;&gt;n18 -->
<g id="edge27" class="edge"><title>n24&#45;&gt;n18</title>
<path fill="none" stroke="black" d="M448.671,-1351.26C383.756,-1340.7 286.201,-1323.01 203.045,-1300.33 190.987,-1297.04 178.313,-1293.03 166.139,-1288.88"/>
<polygon fill="black" stroke="black" points="167.098,-1285.51 156.504,-1285.54 164.805,-1292.12 167.098,-1285.51"/>
</g>
<!-- n24&#45;&gt;n19 -->
<g id="edge28" class="edge"><title>n24&#45;&gt;n19</title>
<path fill="none" stroke="black" d="M468.441,-1342.66C437.311,-1330.86 397.212,-1315.27 362.045,-1300.33 356.297,-1297.88 350.345,-1295.28 344.405,-1292.63"/>
<polygon fill="black" stroke="black" points="345.666,-1289.36 335.111,-1288.44 342.791,-1295.74 345.666,-1289.36"/>
</g>
<!-- n24&#45;&gt;n20 -->
<g id="edge29" class="edge"><title>n24&#45;&gt;n20</title>
<path fill="none" stroke="black" d="M500.906,-1337.13C493.256,-1327.6 484.319,-1316.48 475.753,-1305.81"/>
<polygon fill="black" stroke="black" points="478.294,-1303.39 469.303,-1297.78 472.836,-1307.77 478.294,-1303.39"/>
</g>
<!-- n24&#45;&gt;n21 -->
<g id="edge30" class="edge"><title>n24&#45;&gt;n21</title>
<path fill="none" stroke="black" d="M541.44,-1337.13C549.186,-1327.6 558.237,-1316.48 566.911,-1305.81"/>
<polygon fill="black" stroke="black" points="569.848,-1307.75 573.443,-1297.78 564.417,-1303.33 569.848,-1307.75"/>
</g>
<!-- n24&#45;&gt;n22 -->
<g id="edge31" class="edge"><title>n24&#45;&gt;n22</title>
<path fill="none" stroke="black" d="M573.626,-1342.83C605.006,-1331.03 645.533,-1315.37 681.045,-1300.33 686.796,-1297.89 692.75,-1295.29 698.691,-1292.64"/>
<polygon fill="black" stroke="black" points="700.304,-1295.75 707.986,-1288.46 697.43,-1289.37 700.304,-1295.75"/>
</g>
<!-- n24&#45;&gt;n23 -->
<g id="edge32" class="edge"><title>n24&#45;&gt;n23</title>
<path fill="none" stroke="black" d="M599.729,-1356.9C683.054,-1349.62 807.05,-1333.45 840.045,-1300.33 865.927,-1274.34 871.812,-1232.36 871.865,-1199.83"/>
<polygon fill="black" stroke="black" points="875.361,-1199.57 871.696,-1189.63 868.362,-1199.69 875.361,-1199.57"/>
</g>
<!-- n25 -->
<g id="node25" class="node"><title>n25</title>
<g id="a_node25"><a xlink:title="[[C]]:&#45;1_">
<ellipse fill="none" stroke="black" cx="521.045" cy="-1452.94" rx="52.1524" ry="26.7407"/>
<text text-anchor="middle" x="521.045" y="-1456.74" font-family="Times,serif" font-size="14.00">Node25</text>
<text text-anchor="middle" x="521.045" y="-1441.74" font-family="Times,serif" font-size="14.00">input = {}</text>
</a>
</g>
</g>
<!-- n25&#45;&gt;n24 -->
<g id="edge33" class="edge"><title>n25&#45;&gt;n24</title>
<path fill="none" stroke="black" d="M521.045,-1425.61C521.045,-1417.65 521.045,-1408.75 521.045,-1400.27"/>
<polygon fill="black" stroke="black" points="524.545,-1400.2 521.045,-1390.2 517.545,-1400.2 524.545,-1400.2"/>
</g>
</g>
</svg>
