<?xml version="1.0" encoding="UTF-8" standalone="no"?>
<!DOCTYPE svg PUBLIC "-//W3C//DTD SVG 1.1//EN"
 "http://www.w3.org/Graphics/SVG/1.1/DTD/svg11.dtd">
<!-- Generated by graphviz version 2.38.0 (20140413.2041)
 -->
<!-- Title: G Pages: 1 -->
<svg width="997pt" height="1129pt"
 viewBox="0.00 0.00 997.09 1128.85" xmlns="http://www.w3.org/2000/svg" xmlns:xlink="http://www.w3.org/1999/xlink">
<g id="graph0" class="graph" transform="scale(1 1) rotate(0) translate(4 1124.85)">
<title>G</title>
<polygon fill="white" stroke="none" points="-4,4 -4,-1124.85 993.09,-1124.85 993.09,4 -4,4"/>
<!-- n1 -->
<g id="node1" class="node"><title>n1</title>
<g id="a_node1"><a xlink:title="[tme6.lua]:109_">
<ellipse fill="none" stroke="black" cx="191.045" cy="-137.823" rx="98.9899" ry="26.7407"/>
<text text-anchor="middle" x="191.045" y="-141.623" font-family="Times,serif" font-size="14.00">Node1</text>
<text text-anchor="middle" x="191.045" y="-126.623" font-family="Times,serif" font-size="14.00">module = nn.gModule</text>
</a>
</g>
</g>
<!-- n2 -->
<g id="node2" class="node"><title>n2</title>
<g id="a_node2"><a xlink:title="[[C]]:&#45;1_">
<ellipse fill="none" stroke="black" cx="418.045" cy="-37.4767" rx="208.693" ry="37.4533"/>
<text text-anchor="middle" x="418.045" y="-48.7767" font-family="Times,serif" font-size="14.00">Node2</text>
<text text-anchor="start" x="278.545" y="-33.7767" font-family="Times,serif" font-size="14.00">input = {}</text>
<text text-anchor="middle" x="418.045" y="-18.7767" font-family="Times,serif" font-size="14.00">mapindex = {Node1,Node3,Node4,Node5,Node6}</text>
</a>
</g>
</g>
<!-- n1&#45;&gt;n2 -->
<g id="edge1" class="edge"><title>n1&#45;&gt;n2</title>
<path fill="none" stroke="black" d="M241.988,-114.752C268.169,-103.41 300.807,-89.2698 330.844,-76.2562"/>
<polygon fill="black" stroke="black" points="332.288,-79.4451 340.072,-72.258 329.505,-73.022 332.288,-79.4451"/>
</g>
<!-- n3 -->
<g id="node3" class="node"><title>n3</title>
<g id="a_node3"><a xlink:title="[tme6.lua]:109_">
<ellipse fill="none" stroke="black" cx="324.045" cy="-460.077" rx="98.9899" ry="26.7407"/>
<text text-anchor="middle" x="324.045" y="-463.877" font-family="Times,serif" font-size="14.00">Node3</text>
<text text-anchor="middle" x="324.045" y="-448.877" font-family="Times,serif" font-size="14.00">module = nn.gModule</text>
</a>
</g>
</g>
<!-- n3&#45;&gt;n2 -->
<g id="edge2" class="edge"><title>n3&#45;&gt;n2</title>
<path fill="none" stroke="black" d="M329.854,-433.084C345.368,-363.67 387.927,-173.238 407.698,-84.7728"/>
<polygon fill="black" stroke="black" points="411.115,-85.5343 409.88,-75.0117 404.283,-84.0075 411.115,-85.5343"/>
</g>
<!-- n4 -->
<g id="node4" class="node"><title>n4</title>
<g id="a_node4"><a xlink:title="[tme6.lua]:109_">
<ellipse fill="none" stroke="black" cx="468.045" cy="-349.123" rx="98.9899" ry="26.7407"/>
<text text-anchor="middle" x="468.045" y="-352.923" font-family="Times,serif" font-size="14.00">Node4</text>
<text text-anchor="middle" x="468.045" y="-337.923" font-family="Times,serif" font-size="14.00">module = nn.gModule</text>
</a>
</g>
</g>
<!-- n4&#45;&gt;n2 -->
<g id="edge3" class="edge"><title>n4&#45;&gt;n2</title>
<path fill="none" stroke="black" d="M454.586,-322.328C448.157,-308.794 441.015,-291.723 437.045,-275.647 421.087,-211.011 417.692,-133.754 417.366,-85.3879"/>
<polygon fill="black" stroke="black" points="420.866,-85.2154 417.34,-75.2243 413.866,-85.2332 420.866,-85.2154"/>
</g>
<!-- n5 -->
<g id="node5" class="node"><title>n5</title>
<g id="a_node5"><a xlink:title="[tme6.lua]:109_">
<ellipse fill="none" stroke="black" cx="545.045" cy="-238.17" rx="98.9899" ry="26.7407"/>
<text text-anchor="middle" x="545.045" y="-241.97" font-family="Times,serif" font-size="14.00">Node5</text>
<text text-anchor="middle" x="545.045" y="-226.97" font-family="Times,serif" font-size="14.00">module = nn.gModule</text>
</a>
</g>
</g>
<!-- n5&#45;&gt;n2 -->
<g id="edge4" class="edge"><title>n5&#45;&gt;n2</title>
<path fill="none" stroke="black" d="M528.702,-211.601C508.024,-179.25 472.062,-122.987 446.759,-83.3998"/>
<polygon fill="black" stroke="black" points="449.547,-81.2624 441.212,-74.7215 443.649,-85.0324 449.547,-81.2624"/>
</g>
<!-- n6 -->
<g id="node6" class="node"><title>n6</title>
<g id="a_node6"><a xlink:title="[tme6.lua]:109_">
<ellipse fill="none" stroke="black" cx="733.045" cy="-137.823" rx="98.9899" ry="26.7407"/>
<text text-anchor="middle" x="733.045" y="-141.623" font-family="Times,serif" font-size="14.00">Node6</text>
<text text-anchor="middle" x="733.045" y="-126.623" font-family="Times,serif" font-size="14.00">module = nn.gModule</text>
</a>
</g>
</g>
<!-- n6&#45;&gt;n2 -->
<g id="edge5" class="edge"><title>n6&#45;&gt;n2</title>
<path fill="none" stroke="black" d="M669.679,-117.04C629.508,-104.498 576.433,-87.9272 529.385,-73.2383"/>
<polygon fill="black" stroke="black" points="530.342,-69.8705 519.753,-70.2312 528.256,-76.5524 530.342,-69.8705"/>
</g>
<!-- n7 -->
<g id="node7" class="node"><title>n7</title>
<g id="a_node7"><a xlink:title="[tme6.lua]:105_">
<ellipse fill="none" stroke="black" cx="179.045" cy="-681.983" rx="133.787" ry="37.4533"/>
<text text-anchor="middle" x="179.045" y="-693.283" font-family="Times,serif" font-size="14.00">Node7</text>
<text text-anchor="start" x="92.5452" y="-678.283" font-family="Times,serif" font-size="14.00">module = nn.gModule</text>
<text text-anchor="middle" x="179.045" y="-663.283" font-family="Times,serif" font-size="14.00">mapindex = {Node12,Node13}</text>
</a>
</g>
</g>
<!-- n7&#45;&gt;n1 -->
<g id="edge6" class="edge"><title>n7&#45;&gt;n1</title>
<path fill="none" stroke="black" d="M176.633,-644.427C173.967,-600.804 170.045,-525.652 170.045,-461.077 170.045,-461.077 170.045,-461.077 170.045,-348.123 170.045,-287.019 179.016,-216.38 185.231,-174.772"/>
<polygon fill="black" stroke="black" points="188.698,-175.256 186.745,-164.843 181.778,-174.201 188.698,-175.256"/>
</g>
<!-- n8 -->
<g id="node8" class="node"><title>n8</title>
<g id="a_node8"><a xlink:title="[tme6.lua]:107_">
<ellipse fill="none" stroke="black" cx="327.045" cy="-571.03" rx="128.887" ry="37.4533"/>
<text text-anchor="middle" x="327.045" y="-582.33" font-family="Times,serif" font-size="14.00">Node8</text>
<text text-anchor="start" x="244.045" y="-567.33" font-family="Times,serif" font-size="14.00">module = nn.gModule</text>
<text text-anchor="middle" x="327.045" y="-552.33" font-family="Times,serif" font-size="14.00">mapindex = {Node7,Node14}</text>
</a>
</g>
</g>
<!-- n7&#45;&gt;n8 -->
<g id="edge13" class="edge"><title>n7&#45;&gt;n8</title>
<path fill="none" stroke="black" d="M225.467,-646.809C240.345,-635.856 256.958,-623.626 272.369,-612.281"/>
<polygon fill="black" stroke="black" points="274.81,-614.83 280.788,-606.083 270.66,-609.193 274.81,-614.83"/>
</g>
<!-- n8&#45;&gt;n3 -->
<g id="edge7" class="edge"><title>n8&#45;&gt;n3</title>
<path fill="none" stroke="black" d="M326.038,-533.447C325.717,-521.804 325.363,-508.933 325.043,-497.314"/>
<polygon fill="black" stroke="black" points="328.535,-496.967 324.761,-487.067 321.537,-497.159 328.535,-496.967"/>
</g>
<!-- n9 -->
<g id="node9" class="node"><title>n9</title>
<g id="a_node9"><a xlink:title="[tme6.lua]:107_">
<ellipse fill="none" stroke="black" cx="570.045" cy="-460.077" rx="128.887" ry="37.4533"/>
<text text-anchor="middle" x="570.045" y="-471.377" font-family="Times,serif" font-size="14.00">Node9</text>
<text text-anchor="start" x="487.045" y="-456.377" font-family="Times,serif" font-size="14.00">module = nn.gModule</text>
<text text-anchor="middle" x="570.045" y="-441.377" font-family="Times,serif" font-size="14.00">mapindex = {Node8,Node15}</text>
</a>
</g>
</g>
<!-- n8&#45;&gt;n9 -->
<g id="edge15" class="edge"><title>n8&#45;&gt;n9</title>
<path fill="none" stroke="black" d="M395.705,-539.245C425.594,-525.844 460.783,-510.066 491.69,-496.209"/>
<polygon fill="black" stroke="black" points="493.441,-499.259 501.134,-491.974 490.577,-492.872 493.441,-499.259"/>
</g>
<!-- n9&#45;&gt;n4 -->
<g id="edge8" class="edge"><title>n9&#45;&gt;n4</title>
<path fill="none" stroke="black" d="M536.929,-423.703C524.577,-410.509 510.624,-395.605 498.521,-382.677"/>
<polygon fill="black" stroke="black" points="501.025,-380.23 491.635,-375.322 495.914,-385.014 501.025,-380.23"/>
</g>
<!-- n10 -->
<g id="node10" class="node"><title>n10</title>
<g id="a_node10"><a xlink:title="[tme6.lua]:107_">
<ellipse fill="none" stroke="black" cx="735.045" cy="-349.123" rx="128.887" ry="37.4533"/>
<text text-anchor="middle" x="735.045" y="-360.423" font-family="Times,serif" font-size="14.00">Node10</text>
<text text-anchor="start" x="652.045" y="-345.423" font-family="Times,serif" font-size="14.00">module = nn.gModule</text>
<text text-anchor="middle" x="735.045" y="-330.423" font-family="Times,serif" font-size="14.00">mapindex = {Node9,Node16}</text>
</a>
</g>
</g>
<!-- n9&#45;&gt;n10 -->
<g id="edge17" class="edge"><title>n9&#45;&gt;n10</title>
<path fill="none" stroke="black" d="M620.897,-425.498C638.23,-414.053 657.759,-401.157 675.699,-389.311"/>
<polygon fill="black" stroke="black" points="677.945,-392.022 684.361,-383.591 674.088,-386.181 677.945,-392.022"/>
</g>
<!-- n10&#45;&gt;n5 -->
<g id="edge9" class="edge"><title>n10&#45;&gt;n5</title>
<path fill="none" stroke="black" d="M678.039,-315.434C651.541,-300.239 620.321,-282.336 594.791,-267.696"/>
<polygon fill="black" stroke="black" points="596.431,-264.602 586.015,-262.664 592.949,-270.674 596.431,-264.602"/>
</g>
<!-- n11 -->
<g id="node11" class="node"><title>n11</title>
<g id="a_node11"><a xlink:title="[tme6.lua]:107_">
<ellipse fill="none" stroke="black" cx="796.045" cy="-238.17" rx="133.787" ry="37.4533"/>
<text text-anchor="middle" x="796.045" y="-249.47" font-family="Times,serif" font-size="14.00">Node11</text>
<text text-anchor="start" x="709.545" y="-234.47" font-family="Times,serif" font-size="14.00">module = nn.gModule</text>
<text text-anchor="middle" x="796.045" y="-219.47" font-family="Times,serif" font-size="14.00">mapindex = {Node10,Node17}</text>
</a>
</g>
</g>
<!-- n10&#45;&gt;n11 -->
<g id="edge19" class="edge"><title>n10&#45;&gt;n11</title>
<path fill="none" stroke="black" d="M755.357,-311.844C760.348,-302.93 765.749,-293.283 770.935,-284.019"/>
<polygon fill="black" stroke="black" points="773.99,-285.727 775.822,-275.292 767.883,-282.307 773.99,-285.727"/>
</g>
<!-- n11&#45;&gt;n6 -->
<g id="edge10" class="edge"><title>n11&#45;&gt;n6</title>
<path fill="none" stroke="black" d="M772.944,-201.108C767.036,-191.885 760.703,-181.999 754.862,-172.88"/>
<polygon fill="black" stroke="black" points="757.784,-170.953 749.442,-164.42 751.889,-174.729 757.784,-170.953"/>
</g>
<!-- n12 -->
<g id="node12" class="node"><title>n12</title>
<g id="a_node12"><a xlink:title="[tme6.lua]:97_">
<ellipse fill="none" stroke="black" cx="94.0452" cy="-792.937" rx="94.0904" ry="26.7407"/>
<text text-anchor="middle" x="94.0452" y="-796.737" font-family="Times,serif" font-size="14.00">Node12</text>
<text text-anchor="middle" x="94.0452" y="-781.737" font-family="Times,serif" font-size="14.00">module = nn.Identity</text>
</a>
</g>
</g>
<!-- n12&#45;&gt;n7 -->
<g id="edge11" class="edge"><title>n12&#45;&gt;n7</title>
<path fill="none" stroke="black" d="M113.974,-766.392C123.158,-754.62 134.322,-740.31 144.792,-726.889"/>
<polygon fill="black" stroke="black" points="147.806,-728.716 151.197,-718.679 142.287,-724.41 147.806,-728.716"/>
</g>
<!-- n13 -->
<g id="node13" class="node"><title>n13</title>
<g id="a_node13"><a xlink:title="[tme6.lua]:102_">
<ellipse fill="none" stroke="black" cx="300.045" cy="-792.937" rx="94.0904" ry="26.7407"/>
<text text-anchor="middle" x="300.045" y="-796.737" font-family="Times,serif" font-size="14.00">Node13</text>
<text text-anchor="middle" x="300.045" y="-781.737" font-family="Times,serif" font-size="14.00">module = nn.Identity</text>
</a>
</g>
</g>
<!-- n13&#45;&gt;n7 -->
<g id="edge12" class="edge"><title>n13&#45;&gt;n7</title>
<path fill="none" stroke="black" d="M272.588,-767.213C258.687,-754.696 241.427,-739.155 225.533,-724.843"/>
<polygon fill="black" stroke="black" points="227.634,-722.025 217.861,-717.935 222.95,-727.227 227.634,-722.025"/>
</g>
<!-- n14 -->
<g id="node14" class="node"><title>n14</title>
<g id="a_node14"><a xlink:title="[tme6.lua]:102_">
<ellipse fill="none" stroke="black" cx="435.045" cy="-681.983" rx="94.0904" ry="26.7407"/>
<text text-anchor="middle" x="435.045" y="-685.783" font-family="Times,serif" font-size="14.00">Node14</text>
<text text-anchor="middle" x="435.045" y="-670.783" font-family="Times,serif" font-size="14.00">module = nn.Identity</text>
</a>
</g>
</g>
<!-- n14&#45;&gt;n8 -->
<g id="edge14" class="edge"><title>n14&#45;&gt;n8</title>
<path fill="none" stroke="black" d="M410.268,-655.987C398.07,-643.682 383.027,-628.506 369.099,-614.455"/>
<polygon fill="black" stroke="black" points="371.464,-611.869 361.938,-607.231 366.493,-616.797 371.464,-611.869"/>
</g>
<!-- n15 -->
<g id="node15" class="node"><title>n15</title>
<g id="a_node15"><a xlink:title="[tme6.lua]:102_">
<ellipse fill="none" stroke="black" cx="568.045" cy="-571.03" rx="94.0904" ry="26.7407"/>
<text text-anchor="middle" x="568.045" y="-574.83" font-family="Times,serif" font-size="14.00">Node15</text>
<text text-anchor="middle" x="568.045" y="-559.83" font-family="Times,serif" font-size="14.00">module = nn.Identity</text>
</a>
</g>
</g>
<!-- n15&#45;&gt;n9 -->
<g id="edge16" class="edge"><title>n15&#45;&gt;n9</title>
<path fill="none" stroke="black" d="M568.524,-543.933C568.723,-533.113 568.96,-520.22 569.186,-507.865"/>
<polygon fill="black" stroke="black" points="572.689,-507.734 569.373,-497.672 565.69,-507.606 572.689,-507.734"/>
</g>
<!-- n16 -->
<g id="node16" class="node"><title>n16</title>
<g id="a_node16"><a xlink:title="[tme6.lua]:102_">
<ellipse fill="none" stroke="black" cx="774.045" cy="-571.03" rx="94.0904" ry="26.7407"/>
<text text-anchor="middle" x="774.045" y="-574.83" font-family="Times,serif" font-size="14.00">Node16</text>
<text text-anchor="middle" x="774.045" y="-559.83" font-family="Times,serif" font-size="14.00">module = nn.Identity</text>
</a>
</g>
</g>
<!-- n16&#45;&gt;n10 -->
<g id="edge18" class="edge"><title>n16&#45;&gt;n10</title>
<path fill="none" stroke="black" d="M769.418,-543.94C762.998,-507.737 751.281,-441.668 743.331,-396.842"/>
<polygon fill="black" stroke="black" points="746.738,-396.013 741.546,-386.778 739.846,-397.236 746.738,-396.013"/>
</g>
<!-- n17 -->
<g id="node17" class="node"><title>n17</title>
<g id="a_node17"><a xlink:title="[tme6.lua]:102_">
<ellipse fill="none" stroke="black" cx="895.045" cy="-681.983" rx="94.0904" ry="26.7407"/>
<text text-anchor="middle" x="895.045" y="-685.783" font-family="Times,serif" font-size="14.00">Node17</text>
<text text-anchor="middle" x="895.045" y="-670.783" font-family="Times,serif" font-size="14.00">module = nn.Identity</text>
</a>
</g>
</g>
<!-- n17&#45;&gt;n11 -->
<g id="edge20" class="edge"><title>n17&#45;&gt;n11</title>
<path fill="none" stroke="black" d="M899.786,-654.771C909.848,-591.988 928.164,-429.466 873.045,-311.647 867.705,-300.231 859.692,-289.727 850.823,-280.465"/>
<polygon fill="black" stroke="black" points="853.142,-277.836 843.562,-273.31 848.228,-282.822 853.142,-277.836"/>
</g>
<!-- n18 -->
<g id="node18" class="node"><title>n18</title>
<g id="a_node18"><a xlink:title="[[C]]:&#45;1_&#45;1">
<ellipse fill="none" stroke="black" cx="100.045" cy="-903.89" rx="70.922" ry="37.4533"/>
<text text-anchor="middle" x="100.045" y="-915.19" font-family="Times,serif" font-size="14.00">Node18</text>
<text text-anchor="start" x="58.0452" y="-900.19" font-family="Times,serif" font-size="14.00">input = {}</text>
<text text-anchor="middle" x="100.045" y="-885.19" font-family="Times,serif" font-size="14.00">selectindex = 1</text>
</a>
</g>
</g>
<!-- n18&#45;&gt;n12 -->
<g id="edge21" class="edge"><title>n18&#45;&gt;n12</title>
<path fill="none" stroke="black" d="M98.0306,-866.307C97.3894,-854.664 96.6806,-841.793 96.0408,-830.174"/>
<polygon fill="black" stroke="black" points="99.5211,-829.719 95.4765,-819.927 92.5317,-830.104 99.5211,-829.719"/>
</g>
<!-- n19 -->
<g id="node19" class="node"><title>n19</title>
<g id="a_node19"><a xlink:title="[[C]]:&#45;1_&#45;2">
<ellipse fill="none" stroke="black" cx="282.045" cy="-903.89" rx="70.922" ry="37.4533"/>
<text text-anchor="middle" x="282.045" y="-915.19" font-family="Times,serif" font-size="14.00">Node19</text>
<text text-anchor="start" x="240.045" y="-900.19" font-family="Times,serif" font-size="14.00">input = {}</text>
<text text-anchor="middle" x="282.045" y="-885.19" font-family="Times,serif" font-size="14.00">selectindex = 2</text>
</a>
</g>
</g>
<!-- n19&#45;&gt;n13 -->
<g id="edge22" class="edge"><title>n19&#45;&gt;n13</title>
<path fill="none" stroke="black" d="M288.089,-866.307C290.032,-854.545 292.182,-841.53 294.117,-829.819"/>
<polygon fill="black" stroke="black" points="297.575,-830.363 295.751,-819.927 290.668,-829.222 297.575,-830.363"/>
</g>
<!-- n20 -->
<g id="node20" class="node"><title>n20</title>
<g id="a_node20"><a xlink:title="[[C]]:&#45;1_&#45;3">
<ellipse fill="none" stroke="black" cx="441.045" cy="-903.89" rx="70.922" ry="37.4533"/>
<text text-anchor="middle" x="441.045" y="-915.19" font-family="Times,serif" font-size="14.00">Node20</text>
<text text-anchor="start" x="399.045" y="-900.19" font-family="Times,serif" font-size="14.00">input = {}</text>
<text text-anchor="middle" x="441.045" y="-885.19" font-family="Times,serif" font-size="14.00">selectindex = 3</text>
</a>
</g>
</g>
<!-- n20&#45;&gt;n14 -->
<g id="edge23" class="edge"><title>n20&#45;&gt;n14</title>
<path fill="none" stroke="black" d="M440.041,-866.083C438.926,-825.227 437.139,-759.714 436.031,-719.128"/>
<polygon fill="black" stroke="black" points="439.523,-718.781 435.752,-708.88 432.526,-718.972 439.523,-718.781"/>
</g>
<!-- n21 -->
<g id="node21" class="node"><title>n21</title>
<g id="a_node21"><a xlink:title="[[C]]:&#45;1_&#45;4">
<ellipse fill="none" stroke="black" cx="600.045" cy="-903.89" rx="70.922" ry="37.4533"/>
<text text-anchor="middle" x="600.045" y="-915.19" font-family="Times,serif" font-size="14.00">Node21</text>
<text text-anchor="start" x="558.045" y="-900.19" font-family="Times,serif" font-size="14.00">input = {}</text>
<text text-anchor="middle" x="600.045" y="-885.19" font-family="Times,serif" font-size="14.00">selectindex = 4</text>
</a>
</g>
</g>
<!-- n21&#45;&gt;n15 -->
<g id="edge24" class="edge"><title>n21&#45;&gt;n15</title>
<path fill="none" stroke="black" d="M596.498,-866.218C590.33,-802.44 577.699,-671.842 571.556,-608.327"/>
<polygon fill="black" stroke="black" points="575.004,-607.619 570.557,-598.003 568.036,-608.293 575.004,-607.619"/>
</g>
<!-- n22 -->
<g id="node22" class="node"><title>n22</title>
<g id="a_node22"><a xlink:title="[[C]]:&#45;1_&#45;5">
<ellipse fill="none" stroke="black" cx="764.045" cy="-903.89" rx="70.922" ry="37.4533"/>
<text text-anchor="middle" x="764.045" y="-915.19" font-family="Times,serif" font-size="14.00">Node22</text>
<text text-anchor="start" x="722.045" y="-900.19" font-family="Times,serif" font-size="14.00">input = {}</text>
<text text-anchor="middle" x="764.045" y="-885.19" font-family="Times,serif" font-size="14.00">selectindex = 5</text>
</a>
</g>
</g>
<!-- n22&#45;&gt;n16 -->
<g id="edge25" class="edge"><title>n22&#45;&gt;n16</title>
<path fill="none" stroke="black" d="M765.154,-866.218C767.081,-802.44 771.028,-671.842 772.948,-608.327"/>
<polygon fill="black" stroke="black" points="776.456,-608.104 773.26,-598.003 769.46,-607.893 776.456,-608.104"/>
</g>
<!-- n23 -->
<g id="node23" class="node"><title>n23</title>
<g id="a_node23"><a xlink:title="[[C]]:&#45;1_&#45;6">
<ellipse fill="none" stroke="black" cx="875.045" cy="-792.937" rx="70.922" ry="37.4533"/>
<text text-anchor="middle" x="875.045" y="-804.237" font-family="Times,serif" font-size="14.00">Node23</text>
<text text-anchor="start" x="833.045" y="-789.237" font-family="Times,serif" font-size="14.00">input = {}</text>
<text text-anchor="middle" x="875.045" y="-774.237" font-family="Times,serif" font-size="14.00">selectindex = 6</text>
</a>
</g>
</g>
<!-- n23&#45;&gt;n17 -->
<g id="edge26" class="edge"><title>n23&#45;&gt;n17</title>
<path fill="none" stroke="black" d="M881.761,-755.354C883.92,-743.591 886.309,-730.577 888.458,-718.866"/>
<polygon fill="black" stroke="black" points="891.911,-719.441 890.274,-708.973 885.026,-718.177 891.911,-719.441"/>
</g>
<!-- n24 -->
<g id="node24" class="node"><title>n24</title>
<g id="a_node24"><a xlink:title="[[C]]:&#45;1_ split at [/usr/local/share/lua/5.1/nngraph/gmodule.lua]:72&#45;mnode">
<ellipse fill="none" stroke="black" cx="520.045" cy="-1004.24" rx="80.7205" ry="26.7407"/>
<text text-anchor="middle" x="520.045" y="-1008.04" font-family="Times,serif" font-size="14.00">Node24</text>
<text text-anchor="middle" x="520.045" y="-993.037" font-family="Times,serif" font-size="14.00">nSplitOutputs = 6</text>
</a>
</g>
</g>
<!-- n24&#45;&gt;n18 -->
<g id="edge27" class="edge"><title>n24&#45;&gt;n18</title>
<path fill="none" stroke="black" d="M447.654,-992.359C382.728,-981.847 285.166,-964.174 202.045,-941.367 190.167,-938.107 177.691,-934.129 165.7,-930.011"/>
<polygon fill="black" stroke="black" points="166.803,-926.689 156.208,-926.691 164.492,-933.297 166.803,-926.689"/>
</g>
<!-- n24&#45;&gt;n19 -->
<g id="edge28" class="edge"><title>n24&#45;&gt;n19</title>
<path fill="none" stroke="black" d="M467.441,-983.698C436.311,-971.904 396.212,-956.311 361.045,-941.367 355.297,-938.924 349.345,-936.319 343.405,-933.668"/>
<polygon fill="black" stroke="black" points="344.666,-930.397 334.111,-929.48 341.791,-936.779 344.666,-930.397"/>
</g>
<!-- n24&#45;&gt;n20 -->
<g id="edge29" class="edge"><title>n24&#45;&gt;n20</title>
<path fill="none" stroke="black" d="M499.906,-978.165C492.256,-968.642 483.319,-957.516 474.753,-946.853"/>
<polygon fill="black" stroke="black" points="477.294,-944.427 468.303,-938.822 471.836,-948.811 477.294,-944.427"/>
</g>
<!-- n24&#45;&gt;n21 -->
<g id="edge30" class="edge"><title>n24&#45;&gt;n21</title>
<path fill="none" stroke="black" d="M540.44,-978.165C548.186,-968.642 557.237,-957.516 565.911,-946.853"/>
<polygon fill="black" stroke="black" points="568.848,-948.789 572.443,-938.822 563.417,-944.371 568.848,-948.789"/>
</g>
<!-- n24&#45;&gt;n22 -->
<g id="edge31" class="edge"><title>n24&#45;&gt;n22</title>
<path fill="none" stroke="black" d="M572.139,-983.707C603.526,-971.787 644.226,-956.062 680.045,-941.367 686.821,-938.587 693.877,-935.627 700.895,-932.641"/>
<polygon fill="black" stroke="black" points="702.594,-935.721 710.41,-928.567 699.839,-929.285 702.594,-935.721"/>
</g>
<!-- n24&#45;&gt;n23 -->
<g id="edge32" class="edge"><title>n24&#45;&gt;n23</title>
<path fill="none" stroke="black" d="M598.684,-998.084C683.202,-990.89 810.023,-974.763 844.045,-941.367 870.404,-915.493 877.115,-873.302 877.835,-840.67"/>
<polygon fill="black" stroke="black" points="881.335,-840.458 877.875,-830.444 874.335,-840.43 881.335,-840.458"/>
</g>
<!-- n25 -->
<g id="node25" class="node"><title>n25</title>
<g id="a_node25"><a xlink:title="[[C]]:&#45;1_">
<ellipse fill="none" stroke="black" cx="520.045" cy="-1093.98" rx="52.1524" ry="26.7407"/>
<text text-anchor="middle" x="520.045" y="-1097.78" font-family="Times,serif" font-size="14.00">Node25</text>
<text text-anchor="middle" x="520.045" y="-1082.78" font-family="Times,serif" font-size="14.00">input = {}</text>
</a>
</g>
</g>
<!-- n25&#45;&gt;n24 -->
<g id="edge33" class="edge"><title>n25&#45;&gt;n24</title>
<path fill="none" stroke="black" d="M520.045,-1066.65C520.045,-1058.69 520.045,-1049.79 520.045,-1041.31"/>
<polygon fill="black" stroke="black" points="523.545,-1041.24 520.045,-1031.24 516.545,-1041.24 523.545,-1041.24"/>
</g>
</g>
</svg>
